<svg width="65" height="82" viewBox="0 0 65 82" fill="none" xmlns="http://www.w3.org/2000/svg">
<g clip-path="url(#clip0)">
<path d="M63.7001 47.9C62.9001 46 60.8001 45.2 58.9001 45.9L45.6001 51.8C45.6001 51.6 45.7001 51.4 45.7001 51.2C45.7001 49.3 44.2001 47.8 42.4001 47.8C42.4001 47.8 42.4001 47.8 42.3001 47.8H33.1001L26.1001 44.5C24.6001 43.8 23.0001 43.5 21.4001 43.5H16.0001V41H1.1001V42.5H14.5001V61.5H3.8001V63H16.0001V60.5H20.0001L32.8001 64.8C33.7001 65.1 34.6001 65.2 35.4001 65.2C36.7001 65.2 38.1001 64.9 39.3001 64.3L61.6001 52.6C63.5001 51.9 64.4001 49.7 63.7001 47.9ZM61.1001 51.3L38.7001 63C37.1001 63.9 35.1001 64 33.3001 63.4L20.4001 59.1H16.0001V45H21.4001C22.8001 45 24.2001 45.3 25.4001 45.9L32.7001 49.3H42.3001C43.3001 49.3 44.2001 50.2 44.2001 51.2C44.2001 52.3 43.3001 53.1 42.3001 53.1H31.0001H30.9001C29.9001 53.3 27.9001 54.2 27.9001 56.2H29.4001C29.4001 55 30.8001 54.7 31.1001 54.6H42.3001C42.9001 54.6 43.4001 54.4 43.9001 54.2L59.5001 47.3C60.6001 46.8 61.9001 47.4 62.3001 48.5C62.7001 49.5 62.2001 50.8 61.1001 51.3Z" fill="#008FF7"/>
<path d="M12 57.2998H10.5V58.7998H12V57.2998Z" fill="#008FF7"/>
<path d="M8.80005 57.2998H7.30005V58.7998H8.80005V57.2998Z" fill="#008FF7"/>
<path d="M0.463867 85V82.876H0.0708008V82.3584H0.463867V82.1338C0.463867 81.8376 0.548503 81.6081 0.717773 81.4453C0.888672 81.2809 1.12712 81.1987 1.43311 81.1987C1.53076 81.1987 1.65039 81.215 1.79199 81.2476L1.78467 81.7944C1.72607 81.7798 1.65446 81.7725 1.56982 81.7725C1.30452 81.7725 1.17188 81.897 1.17188 82.146V82.3584H1.69678V82.876H1.17188V85H0.463867ZM3.54736 83.02C3.45133 83.007 3.3667 83.0005 3.29346 83.0005C3.02653 83.0005 2.85156 83.0908 2.76855 83.2715V85H2.06299V82.3584H2.72949L2.74902 82.6733C2.89062 82.4308 3.08675 82.3096 3.3374 82.3096C3.41553 82.3096 3.48877 82.3201 3.55713 82.3413L3.54736 83.02ZM3.69141 83.6548C3.69141 83.3927 3.74186 83.1592 3.84277 82.9541C3.94368 82.749 4.08854 82.5903 4.27734 82.478C4.46777 82.3657 4.68831 82.3096 4.93896 82.3096C5.29541 82.3096 5.58594 82.4186 5.81055 82.6367C6.03678 82.8548 6.16292 83.151 6.18896 83.5254L6.19385 83.7061C6.19385 84.1113 6.08073 84.4368 5.85449 84.6826C5.62826 84.9268 5.32471 85.0488 4.94385 85.0488C4.56299 85.0488 4.25863 84.9268 4.03076 84.6826C3.80452 84.4385 3.69141 84.1064 3.69141 83.6865V83.6548ZM4.39697 83.7061C4.39697 83.9567 4.44417 84.1488 4.53857 84.2822C4.63298 84.4141 4.76807 84.48 4.94385 84.48C5.11475 84.48 5.24821 84.4149 5.34424 84.2847C5.44027 84.1528 5.48828 83.9429 5.48828 83.6548C5.48828 83.409 5.44027 83.2186 5.34424 83.0835C5.24821 82.9484 5.11312 82.8809 4.93896 82.8809C4.76644 82.8809 4.63298 82.9484 4.53857 83.0835C4.44417 83.217 4.39697 83.4245 4.39697 83.7061ZM7.29004 82.3584L7.31201 82.6538C7.49919 82.4243 7.75228 82.3096 8.07129 82.3096C8.41146 82.3096 8.64502 82.4438 8.77197 82.7124C8.95752 82.4438 9.22201 82.3096 9.56543 82.3096C9.85189 82.3096 10.0651 82.3934 10.2051 82.561C10.3451 82.7271 10.415 82.9777 10.415 83.313V85H9.70703V83.3154C9.70703 83.1657 9.67773 83.0566 9.61914 82.9883C9.56055 82.9183 9.45719 82.8833 9.30908 82.8833C9.09749 82.8833 8.95101 82.9842 8.86963 83.186L8.87207 85H8.1665V83.3179C8.1665 83.1649 8.13639 83.0542 8.07617 82.9858C8.01595 82.9175 7.91341 82.8833 7.76855 82.8833C7.56836 82.8833 7.4235 82.9663 7.33398 83.1323V85H6.62842V82.3584H7.29004ZM13.0493 81.709V82.3584H13.501V82.876H13.0493V84.1943C13.0493 84.292 13.068 84.362 13.1055 84.4043C13.1429 84.4466 13.2145 84.4678 13.3203 84.4678C13.3984 84.4678 13.4676 84.4621 13.5278 84.4507V84.9854C13.3895 85.0277 13.2471 85.0488 13.1006 85.0488C12.6058 85.0488 12.3535 84.799 12.3438 84.2993V82.876H11.958V82.3584H12.3438V81.709H13.0493ZM14.5825 82.6465C14.7697 82.4219 15.0049 82.3096 15.2881 82.3096C15.861 82.3096 16.1515 82.6424 16.1597 83.3081V85H15.4541V83.3276C15.4541 83.1763 15.4215 83.0648 15.3564 82.9932C15.2913 82.9199 15.1831 82.8833 15.0317 82.8833C14.825 82.8833 14.6753 82.9631 14.5825 83.1226V85H13.877V81.25H14.5825V82.6465ZM17.9077 85.0488C17.5203 85.0488 17.2046 84.93 16.9604 84.6924C16.7179 84.4548 16.5967 84.1382 16.5967 83.7427V83.6743C16.5967 83.409 16.6479 83.1722 16.7505 82.9639C16.853 82.7539 16.9979 82.5928 17.1851 82.4805C17.3739 82.3665 17.5887 82.3096 17.8296 82.3096C18.1909 82.3096 18.4749 82.4235 18.6816 82.6514C18.89 82.8792 18.9941 83.2023 18.9941 83.6206V83.9087H17.312C17.3348 84.0812 17.4032 84.2196 17.5171 84.3237C17.6326 84.4279 17.7783 84.48 17.9541 84.48C18.2259 84.48 18.4383 84.3815 18.5913 84.1846L18.938 84.5728C18.8322 84.7225 18.689 84.8397 18.5083 84.9243C18.3276 85.0073 18.1274 85.0488 17.9077 85.0488ZM17.8271 82.8809C17.6872 82.8809 17.5732 82.9281 17.4854 83.0225C17.3991 83.1169 17.3438 83.252 17.3193 83.4277H18.3008V83.3716C18.2975 83.2153 18.2552 83.0949 18.1738 83.0103C18.0924 82.924 17.9769 82.8809 17.8271 82.8809ZM23.5791 85H22.8467L21.4209 82.6611V85H20.6885V81.4453H21.4209L22.8491 83.7891V81.4453H23.5791V85ZM24.0625 83.6548C24.0625 83.3927 24.113 83.1592 24.2139 82.9541C24.3148 82.749 24.4596 82.5903 24.6484 82.478C24.8389 82.3657 25.0594 82.3096 25.3101 82.3096C25.6665 82.3096 25.957 82.4186 26.1816 82.6367C26.4079 82.8548 26.534 83.151 26.5601 83.5254L26.5649 83.7061C26.5649 84.1113 26.4518 84.4368 26.2256 84.6826C25.9993 84.9268 25.6958 85.0488 25.3149 85.0488C24.9341 85.0488 24.6297 84.9268 24.4019 84.6826C24.1756 84.4385 24.0625 84.1064 24.0625 83.6865V83.6548ZM24.7681 83.7061C24.7681 83.9567 24.8153 84.1488 24.9097 84.2822C25.0041 84.4141 25.1392 84.48 25.3149 84.48C25.4858 84.48 25.6193 84.4149 25.7153 84.2847C25.8114 84.1528 25.8594 83.9429 25.8594 83.6548C25.8594 83.409 25.8114 83.2186 25.7153 83.0835C25.6193 82.9484 25.4842 82.8809 25.3101 82.8809C25.1375 82.8809 25.0041 82.9484 24.9097 83.0835C24.8153 83.217 24.7681 83.4245 24.7681 83.7061ZM28.5815 84.7314C28.4074 84.943 28.1665 85.0488 27.8589 85.0488C27.5757 85.0488 27.3592 84.9674 27.2095 84.8047C27.0614 84.6419 26.9857 84.4035 26.9824 84.0894V82.3584H27.688V84.0649C27.688 84.34 27.8133 84.4775 28.064 84.4775C28.3032 84.4775 28.4676 84.3945 28.5571 84.2285V82.3584H29.2651V85H28.6011L28.5815 84.7314ZM30.4468 82.3584L30.4688 82.6636C30.6576 82.4276 30.9106 82.3096 31.228 82.3096C31.508 82.3096 31.7163 82.3918 31.853 82.5562C31.9897 82.7205 32.0597 82.9663 32.063 83.2935V85H31.3574V83.3105C31.3574 83.1608 31.3249 83.0526 31.2598 82.9858C31.1947 82.9175 31.0864 82.8833 30.9351 82.8833C30.7365 82.8833 30.5876 82.9679 30.4883 83.1372V85H29.7827V82.3584H30.4468ZM34.624 83.7476V85H33.8916V81.4453H35.2783C35.5452 81.4453 35.7796 81.4941 35.9814 81.5918C36.1849 81.6895 36.3411 81.8286 36.4502 82.0093C36.5592 82.1883 36.6138 82.3926 36.6138 82.6221C36.6138 82.9704 36.4941 83.2454 36.2549 83.4473C36.0173 83.6475 35.6877 83.7476 35.2661 83.7476H34.624ZM34.624 83.1543H35.2783C35.472 83.1543 35.6193 83.1087 35.7202 83.0176C35.8228 82.9264 35.874 82.7962 35.874 82.627C35.874 82.4528 35.8228 82.312 35.7202 82.2046C35.6177 82.0972 35.4761 82.0418 35.2954 82.0386H34.624V83.1543ZM38.5571 83.02C38.4611 83.007 38.3765 83.0005 38.3032 83.0005C38.0363 83.0005 37.8613 83.0908 37.7783 83.2715V85H37.0728V82.3584H37.7393L37.7588 82.6733C37.9004 82.4308 38.0965 82.3096 38.3472 82.3096C38.4253 82.3096 38.4985 82.3201 38.5669 82.3413L38.5571 83.02ZM38.7012 83.6548C38.7012 83.3927 38.7516 83.1592 38.8525 82.9541C38.9535 82.749 39.0983 82.5903 39.2871 82.478C39.4775 82.3657 39.6981 82.3096 39.9487 82.3096C40.3052 82.3096 40.5957 82.4186 40.8203 82.6367C41.0465 82.8548 41.1727 83.151 41.1987 83.5254L41.2036 83.7061C41.2036 84.1113 41.0905 84.4368 40.8643 84.6826C40.638 84.9268 40.3345 85.0488 39.9536 85.0488C39.5728 85.0488 39.2684 84.9268 39.0405 84.6826C38.8143 84.4385 38.7012 84.1064 38.7012 83.6865V83.6548ZM39.4067 83.7061C39.4067 83.9567 39.4539 84.1488 39.5483 84.2822C39.6427 84.4141 39.7778 84.48 39.9536 84.48C40.1245 84.48 40.258 84.4149 40.354 84.2847C40.45 84.1528 40.498 83.9429 40.498 83.6548C40.498 83.409 40.45 83.2186 40.354 83.0835C40.258 82.9484 40.1229 82.8809 39.9487 82.8809C39.7762 82.8809 39.6427 82.9484 39.5483 83.0835C39.4539 83.217 39.4067 83.4245 39.4067 83.7061ZM42.3853 82.3584V85.144C42.3853 85.4354 42.3079 85.6616 42.1533 85.8228C41.9987 85.9855 41.7757 86.0669 41.4844 86.0669C41.3623 86.0669 41.2459 86.0531 41.1353 86.0254V85.4663C41.2199 85.481 41.2939 85.4883 41.3574 85.4883C41.5706 85.4883 41.6772 85.3752 41.6772 85.1489V82.3584H42.3853ZM41.6211 81.6748C41.6211 81.569 41.6561 81.4819 41.7261 81.4136C41.7977 81.3452 41.8945 81.311 42.0166 81.311C42.1387 81.311 42.2347 81.3452 42.3047 81.4136C42.3763 81.4819 42.4121 81.569 42.4121 81.6748C42.4121 81.7822 42.3755 81.8701 42.3022 81.9385C42.2306 82.0068 42.1354 82.041 42.0166 82.041C41.8978 82.041 41.8018 82.0068 41.7285 81.9385C41.6569 81.8701 41.6211 81.7822 41.6211 81.6748ZM44.1528 85.0488C43.7655 85.0488 43.4497 84.93 43.2056 84.6924C42.9631 84.4548 42.8418 84.1382 42.8418 83.7427V83.6743C42.8418 83.409 42.8931 83.1722 42.9956 82.9639C43.0981 82.7539 43.243 82.5928 43.4302 82.4805C43.619 82.3665 43.8338 82.3096 44.0747 82.3096C44.436 82.3096 44.7201 82.4235 44.9268 82.6514C45.1351 82.8792 45.2393 83.2023 45.2393 83.6206V83.9087H43.5571C43.5799 84.0812 43.6483 84.2196 43.7622 84.3237C43.8778 84.4279 44.0234 84.48 44.1992 84.48C44.471 84.48 44.6834 84.3815 44.8364 84.1846L45.1831 84.5728C45.0773 84.7225 44.9341 84.8397 44.7534 84.9243C44.5728 85.0073 44.3726 85.0488 44.1528 85.0488ZM44.0723 82.8809C43.9323 82.8809 43.8184 82.9281 43.7305 83.0225C43.6442 83.1169 43.5889 83.252 43.5645 83.4277H44.5459V83.3716C44.5426 83.2153 44.5003 83.0949 44.4189 83.0103C44.3376 82.924 44.222 82.8809 44.0723 82.8809ZM46.7407 84.48C46.8709 84.48 46.9767 84.4442 47.0581 84.3726C47.1395 84.3009 47.1818 84.2057 47.1851 84.0869H47.8467C47.8451 84.266 47.7962 84.4303 47.7002 84.5801C47.6042 84.7282 47.4723 84.8438 47.3047 84.9268C47.1387 85.0081 46.9548 85.0488 46.7529 85.0488C46.3753 85.0488 46.0775 84.9292 45.8594 84.6899C45.6413 84.4491 45.5322 84.117 45.5322 83.6938V83.6475C45.5322 83.2406 45.6405 82.9159 45.8569 82.6733C46.0734 82.4308 46.3704 82.3096 46.748 82.3096C47.0785 82.3096 47.3429 82.404 47.5415 82.5928C47.7417 82.7799 47.8434 83.0298 47.8467 83.3423H47.1851C47.1818 83.2056 47.1395 83.0949 47.0581 83.0103C46.9767 82.924 46.8693 82.8809 46.7358 82.8809C46.5715 82.8809 46.4469 82.9411 46.3623 83.0615C46.2793 83.1803 46.2378 83.374 46.2378 83.6426V83.7158C46.2378 83.9876 46.2793 84.1829 46.3623 84.3018C46.4453 84.4206 46.5715 84.48 46.7407 84.48ZM49.0942 81.709V82.3584H49.5459V82.876H49.0942V84.1943C49.0942 84.292 49.113 84.362 49.1504 84.4043C49.1878 84.4466 49.2594 84.4678 49.3652 84.4678C49.4434 84.4678 49.5125 84.4621 49.5728 84.4507V84.9854C49.4344 85.0277 49.292 85.0488 49.1455 85.0488C48.6507 85.0488 48.3984 84.799 48.3887 84.2993V82.876H48.0029V82.3584H48.3887V81.709H49.0942Z" fill="#008FF7"/>
<g clip-path="url(#clip1)">
<path d="M43 19C36.9126 19 30.75 20.4599 30.75 23.25V41.95C30.75 44.7401 36.9126 46.2 43 46.2C49.0874 46.2 55.25 44.7401 55.25 41.95V23.25C55.25 20.4599 49.0874 19 43 19ZM53.5 36C53.5 36.8989 49.5135 38.55 43 38.55C36.4865 38.55 32.5 36.8989 32.5 36V31.4984C34.761 32.7857 38.8962 33.45 43 33.45C47.1038 33.45 51.239 32.7857 53.5 31.4984V36ZM53.5 29.2C53.5 30.0989 49.5135 31.75 43 31.75C36.4865 31.75 32.5 30.0989 32.5 29.2V25.5484C34.761 26.8357 38.8962 27.5 43 27.5C47.1038 27.5 51.239 26.8357 53.5 25.5484V29.2ZM43 20.7C49.5135 20.7 53.5 22.3511 53.5 23.25C53.5 24.1489 49.5135 25.8 43 25.8C36.4865 25.8 32.5 24.1489 32.5 23.25C32.5 22.3511 36.4865 20.7 43 20.7ZM43 44.5C36.4865 44.5 32.5 42.8489 32.5 41.95V38.2984C34.761 39.5857 38.8962 40.25 43 40.25C47.1038 40.25 51.239 39.5857 53.5 38.2984V41.95C53.5 42.8489 49.5135 44.5 43 44.5Z" fill="#008FF7"/>
</g>
</g>
<defs>
<clipPath id="clip0">
<rect width="65" height="81.25" fill="white"/>
</clipPath>
<clipPath id="clip1">
<rect width="28" height="34" fill="white" transform="translate(29 19)"/>
</clipPath>
</defs>
</svg>
