<?xml version="1.0" encoding="utf-8"?>
<!-- Generator: Adobe Illustrator 24.1.3, SVG Export Plug-In . SVG Version: 6.00 Build 0)  -->
<svg version="1.1" id="Capa_1" xmlns="http://www.w3.org/2000/svg" xmlns:xlink="http://www.w3.org/1999/xlink" x="0px" y="0px"
	 viewBox="0 0 79.3 79.3" style="enable-background:new 0 0 79.3 79.3;" xml:space="preserve">
<style type="text/css">
	.st0{fill:#008FF7;}
</style>
<g>
	<g>
		<g>
			<g>
				<g>
					<g>
						<g>
							<rect y="43.1" class="st0" width="5.3" height="5.3"/>
						</g>
						<g>
							<polygon class="st0" points="10.8,48.3 16,48.3 16.1,43.1 10.8,43.1 							"/>
						</g>
						<g>
							<rect x="18.7" y="21.5" class="st0" width="17.5" height="5.3"/>
						</g>
						<g>
							<rect x="31" y="10.8" class="st0" width="5.3" height="5.3"/>
						</g>
						<g>
							<rect x="52.5" y="18.7" class="st0" width="5.3" height="17.5"/>
						</g>
						<g>
							<rect x="21.5" y="43.1" class="st0" width="5.3" height="17.5"/>
						</g>
						<g>
							<rect x="31" y="0" class="st0" width="5.3" height="5.3"/>
						</g>
						<g>
							<rect x="63.3" y="30.9" class="st0" width="5.3" height="5.3"/>
						</g>
						<g>
							<rect x="47.9" y="41.8" class="st0" width="25.1" height="5.1"/>
						</g>
						<g>
							<polygon class="st0" points="43.1,57.8 60.6,57.8 60.7,52.5 43.1,52.5 							"/>
						</g>
						<rect x="74" y="31" class="st0" width="5.3" height="5.3"/>
						<g>
							<rect x="43.1" y="63.3" class="st0" width="5.3" height="5.3"/>
						</g>
						<g>
							<rect x="6.3" y="32.4" class="st0" width="25.1" height="5.1"/>
						</g>
						<g>
							<rect x="32.4" y="47.9" class="st0" width="5.1" height="25.1"/>
						</g>
						<g>
							<rect x="43.1" y="74" class="st0" width="5.3" height="5.3"/>
						</g>
						<g>
							<rect x="41.8" y="6.3" class="st0" width="5.1" height="25.1"/>
						</g>
					</g>
				</g>
			</g>
		</g>
	</g>
</g>
</svg>
