<svg width="48" height="60" viewBox="0 0 48 60" fill="none" xmlns="http://www.w3.org/2000/svg">
<g clip-path="url(#clip0)">
<path d="M44.2398 22H14.3398C14.0746 22 13.8203 21.8946 13.6327 21.7071C13.4452 21.5196 13.3398 21.2652 13.3398 21C13.3398 20.7348 13.4452 20.4804 13.6327 20.2929C13.8203 20.1054 14.0746 20 14.3398 20H44.2398C44.5051 20 44.7594 20.1054 44.9469 20.2929C45.1345 20.4804 45.2398 20.7348 45.2398 21C45.2398 21.2652 45.1345 21.5196 44.9469 21.7071C44.7594 21.8946 44.5051 22 44.2398 22Z" fill="#008FF7"/>
<path d="M42.6595 28H15.5195C15.2543 28 15 27.8946 14.8124 27.7071C14.6249 27.5196 14.5195 27.2652 14.5195 27C14.5195 26.7348 14.6249 26.4804 14.8124 26.2929C15 26.1054 15.2543 26 15.5195 26H42.6595C42.9247 26 43.1791 26.1054 43.3666 26.2929C43.5542 26.4804 43.6595 26.7348 43.6595 27C43.6595 27.2652 43.5542 27.5196 43.3666 27.7071C43.1791 27.8946 42.9247 28 42.6595 28Z" fill="#008FF7"/>
<path d="M41.09 34H16.7C16.4647 34.0043 16.2354 33.9254 16.0524 33.7772C15.8695 33.6291 15.7447 33.4211 15.7 33.19L12.36 16.19C12.3317 16.0437 12.3364 15.893 12.3738 15.7488C12.4112 15.6046 12.4804 15.4705 12.5762 15.3565C12.6721 15.2424 12.7922 15.1512 12.9278 15.0896C13.0634 15.0279 13.2111 14.9973 13.36 15H42.64C43.137 14.9988 43.6275 15.1118 44.0737 15.3305C44.52 15.5491 44.9099 15.8674 45.2135 16.2609C45.517 16.6543 45.726 17.1123 45.8242 17.5994C45.9225 18.0865 45.9073 18.5897 45.78 19.07L42.05 33.25C41.995 33.4633 41.871 33.6524 41.6974 33.7881C41.5238 33.9237 41.3103 33.9982 41.09 34ZM17.53 32H40.32L43.85 18.56C43.8973 18.3755 43.9017 18.1826 43.863 17.9961C43.8243 17.8096 43.7435 17.6344 43.6268 17.4839C43.5101 17.3334 43.3605 17.2115 43.1895 17.1277C43.0184 17.0438 42.8305 17.0001 42.64 17H14.57L17.53 32Z" fill="#008FF7"/>
<path d="M36.9998 39H15.0898C14.1616 39 13.2713 38.6312 12.615 37.9749C11.9586 37.3185 11.5898 36.4283 11.5898 35.5C11.5898 34.5717 11.9586 33.6815 12.615 33.0251C13.2713 32.3688 14.1616 32 15.0898 32H16.9998C17.2651 32 17.5194 32.1054 17.707 32.2929C17.8945 32.4804 17.9998 32.7348 17.9998 33C17.9998 33.2652 17.8945 33.5196 17.707 33.7071C17.5194 33.8946 17.2651 34 16.9998 34H15.0898C14.692 34 14.3105 34.158 14.0292 34.4393C13.7479 34.7206 13.5898 35.1022 13.5898 35.5C13.5898 35.8978 13.7479 36.2794 14.0292 36.5607C14.3105 36.842 14.692 37 15.0898 37H36.9998C37.2651 37 37.5194 37.1054 37.707 37.2929C37.8945 37.4804 37.9998 37.7348 37.9998 38C37.9998 38.2652 37.8945 38.5196 37.707 38.7071C37.5194 38.8946 37.2651 39 36.9998 39Z" fill="#008FF7"/>
<path d="M19 45C18.2089 45 17.4355 44.7654 16.7777 44.3259C16.1199 43.8864 15.6072 43.2616 15.3045 42.5307C15.0017 41.7998 14.9225 40.9956 15.0769 40.2196C15.2312 39.4437 15.6122 38.731 16.1716 38.1716C16.731 37.6122 17.4437 37.2312 18.2196 37.0769C18.9956 36.9225 19.7998 37.0017 20.5307 37.3045C21.2616 37.6072 21.8864 38.1199 22.3259 38.7777C22.7654 39.4355 23 40.2089 23 41C23 42.0609 22.5786 43.0783 21.8284 43.8284C21.0783 44.5786 20.0609 45 19 45ZM19 39C18.6044 39 18.2178 39.1173 17.8889 39.3371C17.56 39.5568 17.3036 39.8692 17.1522 40.2346C17.0009 40.6001 16.9613 41.0022 17.0384 41.3902C17.1156 41.7781 17.3061 42.1345 17.5858 42.4142C17.8655 42.6939 18.2219 42.8844 18.6098 42.9616C18.9978 43.0387 19.3999 42.9991 19.7654 42.8478C20.1308 42.6964 20.4432 42.44 20.6629 42.1111C20.8827 41.7822 21 41.3956 21 41C21 40.4696 20.7893 39.9609 20.4142 39.5858C20.0391 39.2107 19.5304 39 19 39Z" fill="#008FF7"/>
<path d="M37 45C36.2089 45 35.4355 44.7654 34.7777 44.3259C34.1199 43.8864 33.6072 43.2616 33.3045 42.5307C33.0017 41.7998 32.9225 40.9956 33.0769 40.2196C33.2312 39.4437 33.6122 38.731 34.1716 38.1716C34.731 37.6122 35.4437 37.2312 36.2196 37.0769C36.9956 36.9225 37.7998 37.0017 38.5307 37.3045C39.2616 37.6072 39.8864 38.1199 40.3259 38.7777C40.7654 39.4355 41 40.2089 41 41C41 42.0609 40.5786 43.0783 39.8284 43.8284C39.0783 44.5786 38.0609 45 37 45ZM37 39C36.6044 39 36.2178 39.1173 35.8889 39.3371C35.56 39.5568 35.3036 39.8692 35.1522 40.2346C35.0009 40.6001 34.9613 41.0022 35.0384 41.3902C35.1156 41.7781 35.3061 42.1345 35.5858 42.4142C35.8655 42.6939 36.2219 42.8844 36.6098 42.9616C36.9978 43.0387 37.3999 42.9991 37.7654 42.8478C38.1308 42.6964 38.4432 42.44 38.6629 42.1111C38.8827 41.7822 39 41.3956 39 41C39 40.4696 38.7893 39.9609 38.4142 39.5858C38.0391 39.2107 37.5304 39 37 39Z" fill="#008FF7"/>
<path d="M29 34C28.7348 34 28.4804 33.8946 28.2929 33.7071C28.1054 33.5196 28 33.2652 28 33V16C28 15.7348 28.1054 15.4804 28.2929 15.2929C28.4804 15.1054 28.7348 15 29 15C29.2652 15 29.5196 15.1054 29.7071 15.2929C29.8946 15.4804 30 15.7348 30 16V33C30 33.2652 29.8946 33.5196 29.7071 33.7071C29.5196 33.8946 29.2652 34 29 34Z" fill="#008FF7"/>
<path d="M23.5095 33.79C23.2755 33.7947 23.0473 33.7172 22.8646 33.5711C22.6819 33.4249 22.5562 33.2193 22.5095 32.99L19.1595 16.2C19.1077 15.9348 19.1635 15.6599 19.3145 15.4358C19.4654 15.2117 19.6992 15.0567 19.9645 15.005C20.2297 14.9533 20.5046 15.009 20.7287 15.16C20.9528 15.311 21.1077 15.5448 21.1595 15.81L24.5295 32.6C24.5558 32.7287 24.5564 32.8613 24.5315 32.9903C24.5065 33.1192 24.4564 33.242 24.3839 33.3516C24.3115 33.4612 24.2182 33.5554 24.1093 33.6289C24.0004 33.7024 23.8782 33.7538 23.7495 33.78L23.5095 33.79Z" fill="#008FF7"/>
<path d="M34.7405 33.79H34.5405C34.4118 33.7638 34.2895 33.7124 34.1806 33.6389C34.0718 33.5654 33.9784 33.4712 33.906 33.3616C33.8336 33.252 33.7834 33.1292 33.7585 33.0003C33.7335 32.8713 33.7342 32.7387 33.7605 32.61L37.1205 15.8C37.1722 15.5348 37.3271 15.301 37.5512 15.15C37.7754 14.999 38.0503 14.9433 38.3155 14.995C38.5807 15.0467 38.8145 15.2017 38.9655 15.4258C39.1164 15.6499 39.1722 15.9248 39.1205 16.19L35.7205 33C35.6724 33.224 35.5488 33.4247 35.3704 33.5685C35.192 33.7124 34.9696 33.7905 34.7405 33.79Z" fill="#008FF7"/>
<path d="M13.24 16.51C13.0046 16.5143 12.7753 16.4354 12.5924 16.2872C12.4095 16.1391 12.2847 15.9311 12.24 15.7L10.37 6.1C10.3105 5.7944 10.148 5.51846 9.90959 5.31826C9.67117 5.11805 9.37128 5.00571 9.06 5H3C2.73478 5 2.48043 4.89464 2.29289 4.70711C2.10536 4.51957 2 4.26522 2 4C2 3.73478 2.10536 3.48043 2.29289 3.29289C2.48043 3.10536 2.73478 3 3 3H9.06C9.8372 3.00151 10.5898 3.2724 11.1897 3.76654C11.7896 4.26067 12.1997 4.94748 12.35 5.71L14.22 15.32C14.2699 15.5799 14.2148 15.8489 14.0667 16.0682C13.9186 16.2875 13.6897 16.4392 13.43 16.49L13.24 16.51Z" fill="#008FF7"/>
</g>
<defs>
<clipPath id="clip0">
<rect width="48" height="60" fill="white"/>
</clipPath>
</defs>
</svg>
