<svg width="32" height="35" viewBox="0 0 32 35" fill="none" xmlns="http://www.w3.org/2000/svg">
<path d="M19.5391 19.5068C19.5391 18.6084 19.2217 17.8516 18.5869 17.2363C17.9619 16.6211 16.9023 16.0645 15.4082 15.5664C13.3281 14.9316 11.8096 14.1064 10.8525 13.0908C9.90527 12.0654 9.43164 10.7666 9.43164 9.19434C9.43164 7.59277 9.89551 6.2793 10.8232 5.25391C11.7607 4.22852 13.0449 3.61816 14.6758 3.42285V0.214844H16.8584V3.4375C18.499 3.66211 19.7734 4.35059 20.6816 5.50293C21.5996 6.65527 22.0586 8.23242 22.0586 10.2344H19.3633C19.3633 8.85742 19.0361 7.76367 18.3818 6.95312C17.7275 6.14258 16.8438 5.7373 15.7305 5.7373C14.5684 5.7373 13.6797 6.04004 13.0645 6.64551C12.4492 7.24121 12.1416 8.07617 12.1416 9.15039C12.1416 10.1465 12.4639 10.9424 13.1084 11.5381C13.7627 12.124 14.832 12.6611 16.3164 13.1494C17.8105 13.6279 18.9727 14.1602 19.8027 14.7461C20.6426 15.3223 21.2578 15.9961 21.6484 16.7676C22.0488 17.5391 22.249 18.4424 22.249 19.4775C22.249 21.1279 21.751 22.4561 20.7549 23.4619C19.7686 24.4678 18.3818 25.0635 16.5947 25.249V28.0469H14.4268V25.249C12.6104 25.083 11.1846 24.4385 10.1494 23.3154C9.12402 22.1826 8.61133 20.6494 8.61133 18.7158H11.3213C11.3213 20.0732 11.6777 21.1182 12.3906 21.8506C13.1035 22.583 14.1143 22.9492 15.4229 22.9492C16.7021 22.9492 17.708 22.6416 18.4404 22.0264C19.1729 21.4111 19.5391 20.5713 19.5391 19.5068Z" fill="white"/>
<path d="M1 10V34H31V10" stroke="white" stroke-width="2"/>
</svg>
