<?xml version="1.0" encoding="utf-8"?>
<!-- Generator: Adobe Illustrator 22.0.0, SVG Export Plug-In . SVG Version: 6.00 Build 0)  -->
<svg version="1.1" id="Capa_1" xmlns="http://www.w3.org/2000/svg" xmlns:xlink="http://www.w3.org/1999/xlink" x="0px" y="0px"
	 viewBox="0 0 166.4 79.3" style="enable-background:new 0 0 166.4 79.3;" xml:space="preserve">
<style type="text/css">
	.st0{fill:#008CFF;}
</style>
<g>
	<g>
		<path d="M90.1,60.3V18.6l8.5-1l1.3,6.5c2.8-4.5,6.8-6.7,12.2-6.7c1.1,0,2,0.1,2.7,0.2l-0.2,8.5c-1-0.2-2.1-0.2-3.2-0.2
			c-3.8,0-6.6,1-8.4,3c-1.9,2-2.8,4.8-2.8,8.3v23.1H90.1z"/>
		<polygon points="131.3,2.7 131.3,11 121.1,11 121.1,3.4 		"/>
		<rect x="121.1" y="17.6" width="10.2" height="42.7"/>
		<path d="M144.3,60.3V24.4h-6.8v-5.7l6.8-1.1v-2.4c0-2.6,0.2-4.8,0.7-6.6c0.5-1.8,1.3-3.4,2.4-4.7c1.1-1.3,2.5-2.3,4.4-2.9
			c1.8-0.6,4.1-1,6.7-1c2.6,0,5.2,0.2,7.9,0.7l-0.9,7.6c-2.1-0.3-3.8-0.4-5-0.4c-2.2,0-3.7,0.5-4.6,1.6c-0.9,1-1.4,2.8-1.4,5.2v2.9
			h8.7l0.6,6.8h-9.4v35.9H144.3z"/>
	</g>
	<g>
		<g>
			<g>
				<g>
					<g>
						<g>
							<rect x="0" y="43.1" class="st0" width="5.3" height="5.3"/>
						</g>
						<g>
							<polygon class="st0" points="10.8,48.3 16,48.3 16.1,43.1 10.8,43.1 							"/>
						</g>
						<g>
							<rect x="18.7" y="21.5" class="st0" width="17.5" height="5.3"/>
						</g>
						<g>
							<rect x="31" y="10.8" class="st0" width="5.3" height="5.3"/>
						</g>
						<g>
							<rect x="52.5" y="18.7" class="st0" width="5.3" height="17.5"/>
						</g>
						<g>
							<rect x="21.5" y="43.1" class="st0" width="5.3" height="17.5"/>
						</g>
						<g>
							<rect x="31" y="0" class="st0" width="5.3" height="5.3"/>
						</g>
						<g>
							<rect x="63.3" y="30.9" class="st0" width="5.3" height="5.3"/>
						</g>
						<g>
							<rect x="47.9" y="41.8" class="st0" width="25.1" height="5.1"/>
						</g>
						<g>
							<polygon class="st0" points="43.1,57.8 60.6,57.8 60.7,52.5 43.1,52.5 							"/>
						</g>
						<rect x="74" y="31" class="st0" width="5.3" height="5.3"/>
						<g>
							<rect x="43.1" y="63.3" class="st0" width="5.3" height="5.3"/>
						</g>
						<g>
							<rect x="6.3" y="32.4" class="st0" width="25.1" height="5.1"/>
						</g>
						<g>
							<rect x="32.4" y="47.9" class="st0" width="5.1" height="25.1"/>
						</g>
						<g>
							<rect x="43.1" y="74" class="st0" width="5.3" height="5.3"/>
						</g>
						<g>
							<rect x="41.8" y="6.3" class="st0" width="5.1" height="25.1"/>
						</g>
					</g>
				</g>
			</g>
		</g>
	</g>
</g>
</svg>
