<?xml version="1.0" standalone="no"?>
<!DOCTYPE svg PUBLIC "-//W3C//DTD SVG 20010904//EN"
 "http://www.w3.org/TR/2001/REC-SVG-20010904/DTD/svg10.dtd">
<svg version="1.0" xmlns="http://www.w3.org/2000/svg"
 width="500.000000pt" height="500.000000pt" viewBox="0 0 500.000000 500.000000"
 preserveAspectRatio="xMidYMid meet">
<metadata>
Created by potrace 1.11, written by Peter Selinger 2001-2013
</metadata>
<g transform="translate(0.000000,500.000000) scale(0.100000,-0.100000)"
fill="#000000" stroke="none">
<path d="M1959 4955 c-4 -101 -3 -283 2 -295 6 -13 32 -15 161 -14 84 1 156 2
160 3 9 2 10 321 1 322 -5 1 -79 2 -165 3 -152 1 -158 0 -159 -19z"/>
<path d="M2637 4576 c-2 -6 -3 -360 -3 -786 l1 -775 160 0 160 0 0 778 c0 428
-2 782 -5 786 -8 11 -309 8 -313 -3z"/>
<path d="M1962 4291 c-4 -11 -6 -198 -3 -294 l1 -28 164 1 163 2 2 164 c1 128
-1 164 -11 165 -7 0 -80 1 -162 2 -118 2 -150 -1 -154 -12z"/>
<path d="M3300 3265 l0 -550 165 0 165 0 1 40 c3 192 0 1048 -5 1052 -3 3 -78
6 -166 7 l-160 1 0 -550z"/>
<path d="M1207 3632 c-15 -3 -17 -22 -17 -168 l0 -164 549 0 549 0 -1 166 -2
166 -531 1 c-292 1 -538 1 -547 -1z"/>
<path d="M3981 3035 c-6 -8 -8 -268 -2 -311 1 -10 320 -15 322 -4 4 17 3 320
-1 321 -28 8 -313 2 -319 -6z"/>
<path d="M4657 3040 c-9 -4 -12 -45 -11 -157 1 -84 2 -157 3 -163 1 -12 320
-14 322 -2 1 4 2 78 3 165 1 135 -1 157 -14 158 -70 4 -293 3 -303 -1z"/>
<path d="M416 2950 c-1 -3 -2 -75 -2 -160 l1 -155 785 0 785 0 0 158 c1 86 -2
158 -5 158 -17 4 -1562 3 -1564 -1z"/>
<path d="M3019 2360 c-1 -3 -2 -74 -3 -157 -1 -98 2 -154 9 -156 5 -2 359 -3
785 -3 l775 1 0 160 0 160 -782 0 c-431 0 -784 -2 -784 -5z"/>
<path d="M29 2287 c-8 -15 -2 -320 6 -325 17 -11 314 -8 318 3 3 9 1 300 -2
317 -1 5 -319 11 -322 5z"/>
<path d="M699 2256 c-1 -33 -1 -274 0 -291 1 -8 228 -12 318 -6 8 1 12 47 12
166 l1 165 -165 -1 -165 -2 -1 -31z"/>
<path d="M1369 2278 c-1 -15 0 -1069 0 -1080 1 -5 75 -8 166 -8 l165 0 0 549
0 550 -165 0 c-127 1 -165 -1 -166 -11z"/>
<path d="M2046 1980 c-2 -5 0 -1535 3 -1555 1 -12 289 -15 306 -3 7 4 10 272
10 785 l0 778 -158 0 c-87 1 -159 -2 -161 -5z"/>
<path d="M2719 1698 c-1 -2 -2 -76 -3 -165 -2 -141 0 -163 14 -164 23 0 977
-1 1035 0 l50 1 0 163 0 162 -548 3 c-301 1 -548 1 -548 0z"/>
<path d="M2712 865 l0 -165 26 -1 c43 -1 286 -1 297 0 8 1 12 238 6 317 -1 8
-53 12 -165 13 l-164 2 0 -166z"/>
<path d="M2715 350 c-7 -12 -5 -320 2 -321 45 -7 323 -2 324 6 6 77 2 308 -6
313 -12 8 -315 10 -320 2z"/>
</g>
</svg>
