<?xml version="1.0" encoding="utf-8"?>
<!-- Generator: Adobe Illustrator 22.0.1, SVG Export Plug-In . SVG Version: 6.00 Build 0)  -->
<svg version="1.1" xmlns="http://www.w3.org/2000/svg" xmlns:xlink="http://www.w3.org/1999/xlink" x="0px" y="0px"
	 viewBox="0 0 600 400" style="enable-background:new 0 0 600 400;" xml:space="preserve">
<style type="text/css">
	.st0{fill:#FFFFFF;}
	.st1{fill:#FFFFFF;}
</style>
<g id="Layer_1">
</g>
<g id="Foreground__x2F__Text">
	<g>
		<g>
			<g>
				<path class="st0" d="M95.5,163.3H149c0.3,0,0.6-0.3,0.6-0.6v-17.3c0-0.3-0.3-0.6-0.6-0.6H95.5c-0.3,0-0.6,0.3-0.6,0.6v17.3
					C94.9,163.1,95.2,163.3,95.5,163.3z M131.7,131.6H149c0.3,0,0.6-0.3,0.6-0.6v-17.3c0-0.3-0.3-0.6-0.6-0.6h-17.3
					c-0.3,0-0.6,0.3-0.6,0.6V131C131.1,131.3,131.4,131.6,131.7,131.6z M57.7,208.3H40.4c-0.3,0-0.6,0.3-0.6,0.6v17.3
					c0,0.3,0.3,0.6,0.6,0.6h17.3c0.3,0,0.6-0.3,0.6-0.6v-17.3C58.3,208.6,58,208.3,57.7,208.3z M121.2,208.3h-17.3
					c-0.3,0-0.6,0.3-0.6,0.6v53.5c0,0.3,0.3,0.6,0.6,0.6h17.3c0.3,0,0.6-0.3,0.6-0.6v-53.5C121.8,208.6,121.5,208.3,121.2,208.3z
					 M227,191h17.3c0.3,0,0.6-0.3,0.6-0.6v-17.3c0-0.3-0.3-0.6-0.6-0.6H227c-0.3,0-0.6,0.3-0.6,0.6v17.3
					C226.4,190.8,226.6,191,227,191z M195.2,191h17.3c0.3,0,0.6-0.3,0.6-0.6v-53.5c0-0.3-0.3-0.6-0.6-0.6h-17.3
					c-0.3,0-0.6,0.3-0.6,0.6v53.5C194.6,190.8,194.9,191,195.2,191z M131.7,99.8H149c0.3,0,0.6-0.3,0.6-0.6V81.9
					c0-0.3-0.3-0.6-0.6-0.6h-17.3c-0.3,0-0.6,0.3-0.6,0.6v17.3C131.1,99.6,131.4,99.8,131.7,99.8z M89.5,208.3H72.2
					c-0.3,0-0.6,0.3-0.6,0.6v17.3c0,0.3,0.3,0.6,0.6,0.6h17.3c0.3,0,0.6-0.3,0.6-0.6v-17.3C90,208.6,89.8,208.3,89.5,208.3z
					 M221,236.1h-53.5c-0.3,0-0.6,0.3-0.6,0.6V254c0,0.3,0.3,0.6,0.6,0.6H221c0.3,0,0.6-0.3,0.6-0.6v-17.3
					C221.5,236.3,221.3,236.1,221,236.1z M257.5,204.6h-75.8c-0.3,0-0.6,0.3-0.6,0.6V222c0,0.3,0.3,0.6,0.6,0.6h75.8
					c0.3,0,0.6-0.3,0.6-0.6v-16.8C258.1,204.8,257.8,204.6,257.5,204.6z M184.7,267.8h-17.3c-0.3,0-0.6,0.3-0.6,0.6v17.3
					c0,0.3,0.3,0.6,0.6,0.6h17.3c0.3,0,0.6-0.3,0.6-0.6v-17.3C185.3,268.1,185.1,267.8,184.7,267.8z M135.3,177.4
					c0-0.3-0.3-0.6-0.6-0.6H58.9c-0.3,0-0.6,0.3-0.6,0.6v16.8c0,0.3,0.3,0.6,0.6,0.6h75.8c0.3,0,0.6-0.3,0.6-0.6V177.4z M276,172.6
					h-17.3c-0.3,0-0.6,0.3-0.6,0.6v17.3c0,0.3,0.3,0.6,0.6,0.6H276c0.3,0,0.6-0.3,0.6-0.6v-17.3C276.6,172.8,276.4,172.6,276,172.6z
					 M152.7,222.6h-16.8c-0.3,0-0.6,0.3-0.6,0.6V299c0,0.3,0.3,0.6,0.6,0.6h16.8c0.3,0,0.6-0.3,0.6-0.6v-75.8
					C153.3,222.9,153,222.6,152.7,222.6z M181.1,176.3v-75.9c0-0.3-0.3-0.6-0.6-0.6h-16.8c-0.3,0-0.6,0.3-0.6,0.6v75.9
					c0,0.3,0.3,0.6,0.6,0.6h16.8C180.8,176.9,181.1,176.6,181.1,176.3z M184.7,299.6h-17.3c-0.3,0-0.6,0.3-0.6,0.6v17.3
					c0,0.3,0.3,0.6,0.6,0.6h17.3c0.3,0,0.6-0.3,0.6-0.6v-17.3C185.3,299.8,185.1,299.6,184.7,299.6z"/>
			</g>
		</g>
		<path class="st1" d="M385.9,172.5h-26.6c-28.7,0-45.2,20.4-45.2,48.8l-0.2,95.3c0,0.8,0.7,1.5,1.5,1.5h33.2c0.8,0,1.5-0.7,1.5-1.5
			l-1.1-94.3c0-11.7,6.5-18.1,18.4-18.1h18.5c0.8,0,1.5-0.7,1.5-1.5V174C387.4,173.2,386.7,172.5,385.9,172.5z M451.5,173.4h-33.2
			c-0.8,0-1.5,0.7-1.5,1.5v141.7c0,0.8,0.7,1.5,1.5,1.5h33.2c0.8,0,1.5-0.7,1.5-1.5V174.8C453,174,452.4,173.4,451.5,173.4z
			 M452.4,112.4h-35c-0.3,0-0.6,0.3-0.6,0.6v35c0,0.3,0.3,0.6,0.6,0.6h35c0.3,0,0.6-0.3,0.6-0.6v-35
			C453,112.6,452.8,112.4,452.4,112.4z M559.8,176.8c0-0.8-0.7-1.5-1.5-1.5h-37v-14.5c0-11.7,6.5-18.1,18.4-18.1h18.3
			c0.8,0,1.5-0.7,1.5-1.5v-28.7c0-0.8-0.7-1.5-1.5-1.5h-26.4c-28.7,0-45.2,20.4-45.2,48.8l-0.2,156.8c0,0.8,0.7,1.5,1.5,1.5h33.2
			c0.8,0,1.5-0.7,1.5-1.5V206.4h35.9c0.8,0,1.5-0.7,1.5-1.5L559.8,176.8z"/>
	</g>
</g>
</svg>
