<svg version="1.1" xmlns="http://www.w3.org/2000/svg" x="0" y="0" viewBox="0 0 600 400" xml:space="preserve"><style type="text/css">.st0{fill:#149dd9}.st1{fill:#fff}</style><g id="Foreground__x2F__Text"><path class="st0" d="M95.5 163.3H149c.3 0 .6-.3.6-.6v-17.3c0-.3-.3-.6-.6-.6H95.5c-.3 0-.6.3-.6.6v17.3c0 .4.3.6.6.6zm36.2-31.7H149c.3 0 .6-.3.6-.6v-17.3c0-.3-.3-.6-.6-.6h-17.3c-.3 0-.6.3-.6.6V131c0 .3.3.6.6.6zm-74 76.7H40.4c-.3 0-.6.3-.6.6v17.3c0 .3.3.6.6.6h17.3c.3 0 .6-.3.6-.6v-17.3c0-.3-.3-.6-.6-.6zm63.5 0h-17.3c-.3 0-.6.3-.6.6v53.5c0 .3.3.6.6.6h17.3c.3 0 .6-.3.6-.6v-53.5c0-.3-.3-.6-.6-.6zM227 191h17.3c.3 0 .6-.3.6-.6v-17.3c0-.3-.3-.6-.6-.6H227c-.3 0-.6.3-.6.6v17.3c0 .4.2.6.6.6zm-31.8 0h17.3c.3 0 .6-.3.6-.6v-53.5c0-.3-.3-.6-.6-.6h-17.3c-.3 0-.6.3-.6.6v53.5c0 .4.3.6.6.6zm-63.5-91.2H149c.3 0 .6-.3.6-.6V81.9c0-.3-.3-.6-.6-.6h-17.3c-.3 0-.6.3-.6.6v17.3c0 .4.3.6.6.6zM89.5 208.3H72.2c-.3 0-.6.3-.6.6v17.3c0 .3.3.6.6.6h17.3c.3 0 .6-.3.6-.6v-17.3c-.1-.3-.3-.6-.6-.6zM221 236.1h-53.5c-.3 0-.6.3-.6.6V254c0 .3.3.6.6.6H221c.3 0 .6-.3.6-.6v-17.3c-.1-.4-.3-.6-.6-.6zm36.5-31.5h-75.8c-.3 0-.6.3-.6.6V222c0 .3.3.6.6.6h75.8c.3 0 .6-.3.6-.6v-16.8c0-.4-.3-.6-.6-.6zm-72.8 63.2h-17.3c-.3 0-.6.3-.6.6v17.3c0 .3.3.6.6.6h17.3c.3 0 .6-.3.6-.6v-17.3c0-.3-.2-.6-.6-.6zm-49.4-90.4c0-.3-.3-.6-.6-.6H58.9c-.3 0-.6.3-.6.6v16.8c0 .3.3.6.6.6h75.8c.3 0 .6-.3.6-.6v-16.8zm140.7-4.8h-17.3c-.3 0-.6.3-.6.6v17.3c0 .3.3.6.6.6H276c.3 0 .6-.3.6-.6v-17.3c0-.4-.2-.6-.6-.6zm-123.3 50h-16.8c-.3 0-.6.3-.6.6V299c0 .3.3.6.6.6h16.8c.3 0 .6-.3.6-.6v-75.8c0-.3-.3-.6-.6-.6zm28.4-46.3v-75.9c0-.3-.3-.6-.6-.6h-16.8c-.3 0-.6.3-.6.6v75.9c0 .3.3.6.6.6h16.8c.3 0 .6-.3.6-.6zm3.6 123.3h-17.3c-.3 0-.6.3-.6.6v17.3c0 .3.3.6.6.6h17.3c.3 0 .6-.3.6-.6v-17.3c0-.4-.2-.6-.6-.6z"/><path class="st1" d="M385.9 172.5h-26.6c-28.7 0-45.2 20.4-45.2 48.8l-.2 95.3c0 .8.7 1.5 1.5 1.5h33.2c.8 0 1.5-.7 1.5-1.5l-1.1-94.3c0-11.7 6.5-18.1 18.4-18.1h18.5c.8 0 1.5-.7 1.5-1.5V174c0-.8-.7-1.5-1.5-1.5zm65.6.9h-33.2c-.8 0-1.5.7-1.5 1.5v141.7c0 .8.7 1.5 1.5 1.5h33.2c.8 0 1.5-.7 1.5-1.5V174.8c0-.8-.6-1.4-1.5-1.4zm.9-61h-35c-.3 0-.6.3-.6.6v35c0 .3.3.6.6.6h35c.3 0 .6-.3.6-.6v-35c0-.4-.2-.6-.6-.6zm107.4 64.4c0-.8-.7-1.5-1.5-1.5h-37v-14.5c0-11.7 6.5-18.1 18.4-18.1H558c.8 0 1.5-.7 1.5-1.5v-28.7c0-.8-.7-1.5-1.5-1.5h-26.4c-28.7 0-45.2 20.4-45.2 48.8l-.2 156.8c0 .8.7 1.5 1.5 1.5h33.2c.8 0 1.5-.7 1.5-1.5V206.4h35.9c.8 0 1.5-.7 1.5-1.5v-28.1z"/></g></svg>
