<?xml version="1.0" encoding="UTF-8"?>
<!DOCTYPE svg PUBLIC "-//W3C//DTD SVG 1.1//EN" "http://www.w3.org/Graphics/SVG/1.1/DTD/svg11.dtd">
<svg version="1.1" xmlns="http://www.w3.org/2000/svg" xmlns:xlink="http://www.w3.org/1999/xlink" x="0" y="0" width="600" height="400" viewBox="0, 0, 600, 400">
  <g id="Background">
    <rect x="0" y="0" width="600" height="400" fill="#000000" fill-opacity="0"/>
  </g>
  <g id="Foreground__x2F__Text">
    <path d="M95.5,163.3 L149,163.3 C149.3,163.3 149.6,163 149.6,162.7 L149.6,145.4 C149.6,145.1 149.3,144.8 149,144.8 L95.5,144.8 C95.2,144.8 94.9,145.1 94.9,145.4 L94.9,162.7 C94.9,163.1 95.2,163.3 95.5,163.3 z M131.7,131.6 L149,131.6 C149.3,131.6 149.6,131.3 149.6,131 L149.6,113.7 C149.6,113.4 149.3,113.1 149,113.1 L131.7,113.1 C131.4,113.1 131.1,113.4 131.1,113.7 L131.1,131 C131.1,131.3 131.4,131.6 131.7,131.6 z M57.7,208.3 L40.4,208.3 C40.1,208.3 39.8,208.6 39.8,208.9 L39.8,226.2 C39.8,226.5 40.1,226.8 40.4,226.8 L57.7,226.8 C58,226.8 58.3,226.5 58.3,226.2 L58.3,208.9 C58.3,208.6 58,208.3 57.7,208.3 z M121.2,208.3 L103.9,208.3 C103.6,208.3 103.3,208.6 103.3,208.9 L103.3,262.4 C103.3,262.7 103.6,263 103.9,263 L121.2,263 C121.5,263 121.8,262.7 121.8,262.4 L121.8,208.9 C121.8,208.6 121.5,208.3 121.2,208.3 z M227,191 L244.3,191 C244.6,191 244.9,190.7 244.9,190.4 L244.9,173.1 C244.9,172.8 244.6,172.5 244.3,172.5 L227,172.5 C226.7,172.5 226.4,172.8 226.4,173.1 L226.4,190.4 C226.4,190.8 226.6,191 227,191 z M195.2,191 L212.5,191 C212.8,191 213.1,190.7 213.1,190.4 L213.1,136.9 C213.1,136.6 212.8,136.3 212.5,136.3 L195.2,136.3 C194.9,136.3 194.6,136.6 194.6,136.9 L194.6,190.4 C194.6,190.8 194.9,191 195.2,191 z M131.7,99.8 L149,99.8 C149.3,99.8 149.6,99.5 149.6,99.2 L149.6,81.9 C149.6,81.6 149.3,81.3 149,81.3 L131.7,81.3 C131.4,81.3 131.1,81.6 131.1,81.9 L131.1,99.2 C131.1,99.6 131.4,99.8 131.7,99.8 z M89.5,208.3 L72.2,208.3 C71.9,208.3 71.6,208.6 71.6,208.9 L71.6,226.2 C71.6,226.5 71.9,226.8 72.2,226.8 L89.5,226.8 C89.8,226.8 90.1,226.5 90.1,226.2 L90.1,208.9 C90,208.6 89.8,208.3 89.5,208.3 z M221,236.1 L167.5,236.1 C167.2,236.1 166.9,236.4 166.9,236.7 L166.9,254 C166.9,254.3 167.2,254.6 167.5,254.6 L221,254.6 C221.3,254.6 221.6,254.3 221.6,254 L221.6,236.7 C221.5,236.3 221.3,236.1 221,236.1 z M257.5,204.6 L181.7,204.6 C181.4,204.6 181.1,204.9 181.1,205.2 L181.1,222 C181.1,222.3 181.4,222.6 181.7,222.6 L257.5,222.6 C257.8,222.6 258.1,222.3 258.1,222 L258.1,205.2 C258.1,204.8 257.8,204.6 257.5,204.6 z M184.7,267.8 L167.4,267.8 C167.1,267.8 166.8,268.1 166.8,268.4 L166.8,285.7 C166.8,286 167.1,286.3 167.4,286.3 L184.7,286.3 C185,286.3 185.3,286 185.3,285.7 L185.3,268.4 C185.3,268.1 185.1,267.8 184.7,267.8 z M135.3,177.4 C135.3,177.1 135,176.8 134.7,176.8 L58.9,176.8 C58.6,176.8 58.3,177.1 58.3,177.4 L58.3,194.2 C58.3,194.5 58.6,194.8 58.9,194.8 L134.7,194.8 C135,194.8 135.3,194.5 135.3,194.2 L135.3,177.4 z M276,172.6 L258.7,172.6 C258.4,172.6 258.1,172.9 258.1,173.2 L258.1,190.5 C258.1,190.8 258.4,191.1 258.7,191.1 L276,191.1 C276.3,191.1 276.6,190.8 276.6,190.5 L276.6,173.2 C276.6,172.8 276.4,172.6 276,172.6 z M152.7,222.6 L135.9,222.6 C135.6,222.6 135.3,222.9 135.3,223.2 L135.3,299 C135.3,299.3 135.6,299.6 135.9,299.6 L152.7,299.6 C153,299.6 153.3,299.3 153.3,299 L153.3,223.2 C153.3,222.9 153,222.6 152.7,222.6 z M181.1,176.3 L181.1,100.4 C181.1,100.1 180.8,99.8 180.5,99.8 L163.7,99.8 C163.4,99.8 163.1,100.1 163.1,100.4 L163.1,176.3 C163.1,176.6 163.4,176.9 163.7,176.9 L180.5,176.9 C180.8,176.9 181.1,176.6 181.1,176.3 z M184.7,299.6 L167.4,299.6 C167.1,299.6 166.8,299.9 166.8,300.2 L166.8,317.5 C166.8,317.8 167.1,318.1 167.4,318.1 L184.7,318.1 C185,318.1 185.3,317.8 185.3,317.5 L185.3,300.2 C185.3,299.8 185.1,299.6 184.7,299.6 z" fill="#149DD9"/>
    <path d="M385.9,142.8 L359.3,142.8 C330.6,142.8 314.1,163.2 314.1,191.6 L313.9,286.9 C313.9,287.7 314.6,288.4 315.4,288.4 L348.6,288.4 C349.4,288.4 350.1,287.7 350.1,286.9 L349,192.6 C349,180.9 355.5,174.5 367.4,174.5 L385.9,174.5 C386.7,174.5 387.4,173.8 387.4,173 L387.4,144.3 C387.4,143.5 386.7,142.8 385.9,142.8 z M451.5,143.7 L418.3,143.7 C417.5,143.7 416.8,144.4 416.8,145.2 L416.8,286.9 C416.8,287.7 417.5,288.4 418.3,288.4 L451.5,288.4 C452.3,288.4 453,287.7 453,286.9 L453,145.1 C453,144.3 452.4,143.7 451.5,143.7 z M452.4,82.7 L417.4,82.7 C417.1,82.7 416.8,83 416.8,83.3 L416.8,118.3 C416.8,118.6 417.1,118.9 417.4,118.9 L452.4,118.9 C452.7,118.9 453,118.6 453,118.3 L453,83.3 C453,82.9 452.8,82.7 452.4,82.7 z M559.8,147.1 C559.8,146.3 559.1,145.6 558.3,145.6 L521.3,145.6 L521.3,131.1 C521.3,119.4 527.8,113 539.7,113 L558,113 C558.8,113 559.5,112.3 559.5,111.5 L559.5,82.8 C559.5,82 558.8,81.3 558,81.3 L531.6,81.3 C502.9,81.3 486.4,101.7 486.4,130.1 L486.2,286.9 C486.2,287.7 486.9,288.4 487.7,288.4 L520.9,288.4 C521.7,288.4 522.4,287.7 522.4,286.9 L522.4,176.7 L558.3,176.7 C559.1,176.7 559.8,176 559.8,175.2 L559.8,147.1 z" fill="#000000"/>
  </g>
</svg>
